<?xml version="1.0" encoding="UTF-8" standalone="no"?>
<svg
   width="130.10936mm"
   height="58.062813mm"
   viewBox="0 0 130.10936 58.062813"
   version="1.1"
   id="svg428"
   inkscape:version="1.2 (dc2aedaf03, 2022-05-15)"
   sodipodi:docname="Black font logo.svg"
   inkscape:export-filename="Black font logo.pdf"
   inkscape:export-xdpi="96"
   inkscape:export-ydpi="96"
   xmlns:inkscape="http://www.inkscape.org/namespaces/inkscape"
   xmlns:sodipodi="http://sodipodi.sourceforge.net/DTD/sodipodi-0.dtd"
   xmlns="http://www.w3.org/2000/svg"
   xmlns:svg="http://www.w3.org/2000/svg"
   xmlns:rdf="http://www.w3.org/1999/02/22-rdf-syntax-ns#"
   xmlns:cc="http://creativecommons.org/ns#"
   xmlns:dc="http://purl.org/dc/elements/1.1/">
  <defs
     id="defs422" />
  <sodipodi:namedview
     id="base"
     pagecolor="#ffffff"
     bordercolor="#666666"
     borderopacity="1.0"
     inkscape:pageopacity="0.0"
     inkscape:pageshadow="2"
     inkscape:zoom="0.88"
     inkscape:cx="400.56818"
     inkscape:cy="561.93182"
     inkscape:document-units="mm"
     inkscape:current-layer="layer1"
     inkscape:document-rotation="0"
     showgrid="false"
     inkscape:window-width="2400"
     inkscape:window-height="1271"
     inkscape:window-x="2391"
     inkscape:window-y="-9"
     inkscape:window-maximized="1"
     inkscape:showpageshadow="2"
     inkscape:pagecheckerboard="0"
     inkscape:deskcolor="#d1d1d1" />
  <metadata
     id="metadata425">
    <rdf:RDF>
      <cc:Work
         rdf:about="">
        <dc:format>image/svg+xml</dc:format>
        <dc:type
           rdf:resource="http://purl.org/dc/dcmitype/StillImage" />
        <dc:title />
      </cc:Work>
    </rdf:RDF>
  </metadata>
  <g
     inkscape:label="Layer 1"
     inkscape:groupmode="layer"
     id="layer1"
     transform="translate(-34.27575,-104.77216)">
    <path
       fill="#373737"
       opacity="1"
       stroke="none"
       d="m 53.290991,122.38304 c 1.665409,1.21511 3.246506,2.37788 4.921803,3.60992 0.318238,-0.33744 0.796115,-0.89122 1.322173,-1.39467 5.53698,-5.29906 13.868238,-4.06716 18.235319,-0.58566 3.534457,2.81772 4.001775,6.66999 3.135434,10.79155 -0.770374,3.66505 -2.502286,6.93623 -4.493482,10.07303 -0.112163,0.17669 -0.356884,0.26925 -0.717011,0.52839 1.402385,-3.54547 2.349437,-6.93907 2.14453,-10.55824 -0.358989,-6.34076 -5.372708,-10.25073 -11.625606,-9.06862 -3.966972,0.74996 -6.185532,2.40281 -8.042577,6.07299 -0.120192,-0.17167 -0.216201,-0.28158 -0.282379,-0.40722 -4.035631,-7.66079 -13.165177,-6.93049 -17.607436,-0.71852 -2.797225,3.91159 -3.024804,8.26792 -1.777592,12.75895 1.43991,5.18493 4.471791,9.43887 8.112347,13.27882 1.695111,1.78795 3.570647,3.40453 5.356243,5.10735 0.284134,0.27096 0.525206,0.58709 0.684306,0.96387 -7.294505,-4.98142 -13.404573,-10.97909 -16.581827,-19.43033 -1.393664,-3.70704 -2.254425,-7.578 -1.546291,-11.52815 1.554758,-8.67295 10.401525,-13.13079 18.762046,-9.49346 z"
       id="path115"
       style="fill:#000000;stroke-width:0.264583" />
    <path
       fill="#373737"
       opacity="1"
       stroke="none"
       d="m 158.20713,123.06331 c -0.10469,-0.56153 -0.12539,-1.15538 -0.32703,-1.67961 -2.1753,-5.65545 -6.06562,-9.94819 -10.85252,-13.50541 -1.40358,-1.04302 -2.8668,-2.00584 -4.44737,-3.10613 0.41869,0.0576 0.71559,0.0379 0.96078,0.14105 8.90403,3.74567 15.78027,9.56795 19.00795,18.96387 1.50194,4.37227 2.28967,8.90477 1.22503,13.50581 -1.46307,6.32292 -7.78939,10.70889 -14.04095,9.90328 -6.94814,-0.89536 -11.94822,-6.50114 -11.85351,-13.2894 0.0923,-6.61314 5.14578,-12.15242 11.69441,-12.87763 3.05445,-0.33824 5.85158,0.34098 8.58024,1.96625 0.15994,0.051 0.20611,0.0338 0.25228,0.0166 -0.0128,-0.028 -0.0287,-0.081 -0.0379,-0.0799 -0.0546,0.007 -0.10774,0.0261 -0.16136,0.0412 m -16.95793,10.22423 c -0.32194,5.74822 3.77873,10.41511 9.33792,10.62729 5.27382,0.2013 9.88233,-3.74234 10.27534,-8.79297 0.43596,-5.60223 -3.45089,-10.11799 -9.17909,-10.66433 -5.06276,-0.48288 -9.73486,3.36904 -10.43417,8.83001 z"
       id="path117"
       style="fill:#000000;stroke-width:0.264583" />
    <path
       fill="#3b3b3b"
       opacity="1"
       stroke="none"
       d="m 132.99636,143.3139 c -4.29103,4.03716 -9.17819,5.20359 -14.54356,2.96043 -5.19551,-2.17214 -7.91285,-6.33025 -8.08099,-11.95472 -0.17405,-5.82237 3.67162,-10.95187 9.28257,-12.71817 5.4101,-1.70309 11.46443,0.39655 14.69368,5.09574 3.27204,4.76148 3.06548,11.11817 -0.51231,15.64727 -0.24551,0.31079 -0.51607,0.60177 -0.83939,0.96945 m -9.30543,2.03546 c 6.43225,-0.32107 11.28133,-4.81238 11.50283,-10.6542 0.27221,-7.17921 -6.44567,-12.87441 -13.62975,-11.55485 -6.86173,1.26033 -11.04983,7.46491 -9.35711,13.86233 1.28404,4.85288 5.63479,8.08712 11.48403,8.34672 z"
       id="path119"
       style="fill:#000000;stroke-width:0.264583" />
    <path
       fill="#3a3a3a"
       opacity="1"
       stroke="none"
       d="m 100.46021,146.52963 c -7.273505,2.37765 -14.562223,-1.10862 -16.997435,-8.05014 -2.369283,-6.7536 1.150115,-14.1377 7.939582,-16.65811 6.508348,-2.41608 13.820863,0.7439 16.582563,7.16589 2.76805,6.43677 -0.0407,13.99088 -6.33775,17.03672 -0.35571,0.17203 -0.72497,0.31603 -1.18696,0.50564 m -9.533373,-2.06193 c 4.808387,2.18997 10.048343,1.14946 13.504033,-2.68152 3.29328,-3.65096 3.83756,-9.0917 1.33846,-13.37993 -2.51914,-4.32267 -7.460361,-6.45157 -12.454596,-5.36604 -4.586912,0.99702 -7.99986,4.80005 -8.768313,9.7705 -0.699011,4.52134 1.727933,9.05787 6.380416,11.65699 z"
       id="path121"
       style="fill:#000000;stroke-width:0.264583" />
    <path
       fill="#393939"
       opacity="1"
       stroke="none"
       d="m 149.43496,161.8469 c -0.89471,0.25243 -1.77607,0.38097 -2.77267,0.5263 0,-3.18237 0,-6.19344 0,-9.18403 2.10151,0 4.21187,-0.13234 6.28773,0.0773 0.65889,0.0665 1.46248,0.93746 1.77562,1.63165 0.40271,0.89265 0.14872,1.91931 -0.69731,2.62736 -0.28806,0.24108 -0.6199,0.42986 -0.80918,0.55895 0.80565,1.33704 1.58425,2.62917 2.50543,4.15794 -1.01635,0 -1.76249,0.0987 -2.46459,-0.0346 -0.46926,-0.0891 -0.99182,-0.41903 -1.2842,-0.79968 -0.47615,-0.61992 -0.73679,-1.40128 -1.18001,-2.05212 -0.25964,-0.38127 -0.69678,-0.64166 -1.34743,-1.21486 0,1.4922 0,2.5371 -0.0134,3.70589 m 1.36436,-6.91962 c -0.42231,0 -0.84461,0 -1.25694,0 0,0.68456 0,1.22913 0,1.86558 0.52386,-0.0333 0.98565,0.0307 1.36982,-0.11292 0.39246,-0.14674 0.70874,-0.49721 1.05838,-0.7585 -0.32177,-0.32259 -0.64354,-0.64518 -1.17126,-0.99416 z"
       id="path123"
       style="fill:#000000;stroke-width:0.264583" />
    <path
       fill="#373737"
       opacity="1"
       stroke="none"
       d="m 83.33075,156.179 c 0.05636,0.58679 0.141627,1.06902 0.131961,1.54935 -0.04806,2.389 -1.074248,3.91187 -2.976475,4.46702 -2.230863,0.65104 -4.638296,-0.009 -5.730052,-1.57119 -1.119174,-1.60134 -1.111657,-4.42561 0.03798,-5.9923 1.264917,-1.72382 3.094199,-1.9041 4.987501,-1.65791 1.818307,0.23641 3.041037,1.28537 3.549089,3.20503 m -3.055108,-0.25198 c -0.685987,-0.27494 -1.465857,-0.88795 -2.031828,-0.73077 -0.578477,0.16065 -1.146569,1.0154 -1.351338,1.67969 -0.203329,0.65965 -0.167174,1.58719 0.167005,2.16355 0.329944,0.56905 1.161177,1.15135 1.778434,1.1578 0.53444,0.006 1.392132,-0.70017 1.544481,-1.24794 0.244647,-0.87964 0.02524,-1.88835 -0.106754,-3.02233 z"
       id="path125"
       style="fill:#000000;stroke-width:0.264583" />
    <path
       fill="#3c3c3c"
       opacity="1"
       stroke="none"
       d="m 141.55243,160.15372 c 1.18407,-1e-5 2.23518,-1e-5 3.36562,-1e-5 0,0.69439 0,1.29194 0,1.99212 -2.4789,0 -5.00751,0 -7.60967,0 0,-3.00303 0,-6.01584 0,-9.08205 2.49568,0 4.91087,0 7.43866,0 0,0.62436 0,1.2486 0,1.96869 -1.53126,0 -3.01744,0 -4.60727,0 -0.0247,0.45645 -0.0448,0.82865 -0.075,1.38714 1.48904,0 2.91731,0 4.36192,0 0,0.73764 0,1.2933 0,1.94869 -1.41858,0 -2.77334,0 -4.23947,0 0,0.59667 0,1.09575 0,1.78543 0.38385,0 0.80809,0 1.36526,-1e-5 z"
       id="path127"
       style="fill:#000000;stroke-width:0.264583" />
    <path
       fill="#3a3a3a"
       opacity="1"
       stroke="none"
       d="m 84.991704,155.84984 c 8e-6,-0.96237 8e-6,-1.795 8e-6,-2.73133 0.966219,0 1.856055,0 2.867766,0 0,1.73772 0.02035,3.44404 -0.0072,5.14959 -0.01802,1.11331 0.304819,1.93157 1.560111,1.99717 1.05583,0.0552 1.584296,-0.59924 1.596559,-1.94651 0.01558,-1.71203 0.0038,-3.42431 0.0038,-5.22054 0.935189,0 1.794561,0 2.964305,0 -0.115417,2.30069 -0.05443,4.6289 -0.438425,6.88124 -0.140666,0.82507 -1.231474,1.89174 -2.074389,2.10107 -1.340771,0.33298 -2.891613,0.27132 -4.253505,-0.049 -1.616777,-0.38027 -2.092402,-1.8784 -2.194738,-3.41198 -0.05849,-0.87663 -0.01939,-1.75976 -0.02424,-2.7697 z"
       id="path129"
       style="fill:#000000;stroke-width:0.264583" />
    <path
       fill="#393939"
       opacity="1"
       stroke="none"
       d="m 162.38299,156.66524 c 1.70342,0.89958 2.17699,1.69548 1.94838,3.14119 -0.20083,1.27001 -1.17675,2.15927 -2.73146,2.4889 -2.7955,0.59273 -4.796,-0.28004 -5.44105,-2.38145 -0.0496,-0.16158 -0.0378,-0.342 -0.0704,-0.67662 0.83719,-0.0767 1.64853,-0.15111 2.45986,-0.22549 -0.0482,0.12525 -0.0964,0.25049 -0.14466,0.37573 0.72178,0.40125 1.41342,0.89356 2.18365,1.14827 0.2311,0.0764 0.81539,-0.4515 0.97369,-0.81699 0.0776,-0.17903 -0.38511,-0.77146 -0.7161,-0.91295 -0.84386,-0.36074 -1.76799,-0.52873 -2.62883,-0.85589 -1.11359,-0.42323 -1.89239,-1.18894 -1.81411,-2.47045 0.0799,-1.30809 0.8822,-2.14796 2.12608,-2.34858 1.06672,-0.17204 2.19484,-0.20404 3.26377,-0.06 1.29987,0.17514 2.0631,1.05798 2.27938,2.48196 -1.1849,0.0821 -2.37319,0.76078 -3.26123,-0.67778 -0.14038,-0.22741 -0.88897,-0.13844 -1.34207,-0.0818 -0.159,0.0199 -0.27521,0.38199 -0.41097,0.58782 0.35524,0.22406 0.68511,0.51961 1.07125,0.65661 0.70162,0.24892 1.43668,0.40361 2.25485,0.62751 z"
       id="path131"
       style="fill:#000000;stroke-width:0.264583" />
    <path
       fill="#393939"
       opacity="1"
       stroke="none"
       d="m 109.5344,158.4914 c -0.55902,2e-5 -0.99364,2e-5 -1.54646,2e-5 0,1.21987 0,2.38364 0,3.64913 -1.00695,0 -1.89959,0 -2.87057,0 0,-2.97864 0,-5.98571 0,-9.0599 2.31052,0 4.57432,0 6.91817,0 0,0.65174 0,1.23941 0,1.93356 -1.34498,0 -2.64745,0 -4.02527,0 0,0.56092 0,1.01809 0,1.60045 1.11099,0 2.23248,0 3.39918,0 0,0.67892 0,1.2337 0,1.87672 -0.62247,0 -1.18654,0 -1.87505,2e-5 z"
       id="path133"
       style="fill:#000000;stroke-width:0.264583" />
    <path
       fill="#3c3c3c"
       opacity="1"
       stroke="none"
       d="m 123.23212,162.24057 c -0.81744,0.005 -1.5102,0.005 -2.3095,0.005 0,-2.32611 0,-4.54923 0,-6.89503 -1.00015,0 -1.90038,0 -2.86435,0 0,-0.80643 0,-1.49069 0,-2.25761 2.80275,0 5.59758,0 8.50296,0 0,0.67149 0,1.3464 0,2.16594 -0.83992,0 -1.73573,0 -2.79333,0 0,2.0097 0.0239,3.88159 -0.0187,5.75196 -0.009,0.41125 -0.25536,0.81709 -0.51708,1.23008 z"
       id="path135"
       style="fill:#000000;stroke-width:0.264583" />
    <path
       fill="#3c3c3c"
       opacity="1"
       stroke="none"
       d="m 97.96785,156.6587 c 8e-6,-0.47771 8e-6,-0.82554 8e-6,-1.3062 -0.95536,0 -1.85592,0 -2.829092,0 0,-0.81031 0,-1.48896 0,-2.25525 2.827808,0 5.617344,0 8.504554,0 0,0.67087 0,1.35216 0,2.15554 -0.82921,0 -1.72961,0 -2.78058,0 0,2.37071 0,4.62757 0,6.93691 -1.010906,0 -1.871956,0 -2.894898,0 0,-1.82309 0,-3.61211 8e-6,-5.531 z"
       id="path137"
       style="fill:#000000;stroke-width:0.264583" />
    <path
       fill="#3a3a3a"
       opacity="1"
       stroke="none"
       d="m 132.50602,162.24126 c -0.81932,0.004 -1.51288,0.004 -2.30945,0.004 0,-2.33367 0,-4.561 0,-6.90961 -0.99957,0 -1.90193,0 -2.86162,0 0,-0.80482 0,-1.4881 0,-2.24759 2.82998,0 5.62971,0 8.53007,0 0,0.68913 0,1.36502 0,2.17961 -0.85596,0 -1.75608,0 -2.80493,0 0,2.00797 0.0246,3.88552 -0.0195,5.76145 -0.01,0.40561 -0.26607,0.8054 -0.53461,1.21201 z"
       id="path139"
       style="fill:#000000;stroke-width:0.264583" />
    <path
       fill="#3c3c3c"
       opacity="1"
       stroke="none"
       d="m 116.61823,159.01228 c 0,1.12832 0,2.12546 0,3.17621 -1.01364,0 -1.87318,0 -2.80254,0 0,-3.04372 0,-6.0449 0,-9.11238 0.92181,0 1.77779,0 2.80255,0 0,1.97386 0,3.88942 -1e-5,5.93617 z"
       id="path141"
       style="fill:#000000;stroke-width:0.264583" />
    <path
       fill="#f8f8f8"
       opacity="1"
       stroke="none"
       d="m 141.2578,133.16668 c 0.69071,-5.34011 5.36281,-9.19203 10.42557,-8.70915 5.7282,0.54634 9.61505,5.0621 9.17909,10.66433 -0.39301,5.05063 -5.00152,8.99427 -10.27534,8.79298 -5.55919,-0.21219 -9.65986,-4.87907 -9.32932,-10.74816 z"
       id="path173"
       style="fill:none;stroke-width:0.264583" />
    <path
       fill="#f8f8f8"
       opacity="1"
       stroke="none"
       d="m 158.2118,123.05468 c 0.049,-0.007 0.10206,-0.0258 0.15669,-0.0325 0.009,-0.001 0.0251,0.0519 0.0379,0.0799 -0.0462,0.0172 -0.0923,0.0344 -0.15853,-0.0102 -0.02,-0.0618 -0.0314,-0.0458 -0.0361,-0.0371 z"
       id="path175"
       style="stroke-width:0.264583" />
    <path
       fill="#f7f7f7"
       opacity="1"
       stroke="none"
       d="m 123.56431,145.35033 c -5.72262,-0.26057 -10.07337,-3.49481 -11.35741,-8.34769 -1.69272,-6.39742 2.49538,-12.602 9.35711,-13.86233 7.18408,-1.31956 13.90196,4.37564 13.62975,11.55485 -0.2215,5.84182 -5.07058,10.33313 -11.62945,10.65517 m 0.10978,-5.22119 c 0.8426,-2.02366 0.59329,-3.89712 -0.90998,-5.50179 -1.30471,-1.39268 -2.95622,-1.87068 -4.8174,-1.38825 -2.25113,0.5835 -3.68395,2.43358 -3.7143,4.70427 -0.0303,2.26787 1.41846,4.26707 3.52839,4.86891 2.3014,0.65644 4.42157,-0.25395 5.91329,-2.68314 z"
       id="path177"
       style="fill:none;stroke-width:0.264583" />
    <path
       fill="#f7f7f7"
       opacity="1"
       stroke="none"
       d="m 90.834596,144.43002 c -4.560242,-2.56144 -6.987186,-7.09797 -6.288175,-11.61931 0.768453,-4.97045 4.181401,-8.77348 8.768313,-9.7705 4.994235,-1.08553 9.935456,1.04337 12.454596,5.36604 2.4991,4.28823 1.95482,9.72897 -1.33846,13.37993 -3.45569,3.83098 -8.695646,4.87149 -13.596274,2.64384 m 12.174364,-2.35255 c 2.1085,-1.82316 2.66186,-4.1609 1.50423,-6.35498 -1.06543,-2.01934 -3.42428,-3.08897 -5.581932,-2.50648 -1.957331,0.5284 -3.241111,1.7873 -3.649252,3.76596 -0.428485,2.07736 0.210243,3.86741 1.979605,5.09667 1.801116,1.25131 3.696929,1.23157 5.747349,-0.001 z"
       id="path179"
       style="fill:none;stroke-width:0.264583" />
    <path
       fill="#353535"
       opacity="1"
       stroke="none"
       d="m 123.62867,140.22063 c -1.4463,2.3377 -3.56647,3.24809 -5.86787,2.59165 -2.10993,-0.60184 -3.5587,-2.60104 -3.52839,-4.86891 0.0303,-2.27069 1.46317,-4.12077 3.7143,-4.70427 1.86118,-0.48243 3.51269,-0.004 4.8174,1.38825 1.50327,1.60467 1.75258,3.47813 0.86456,5.59328 z"
       id="path197"
       style="fill:#000000;stroke-width:0.264583" />
    <path
       fill="#353535"
       opacity="1"
       stroke="none"
       d="m 102.92476,142.1313 c -1.96622,1.17891 -3.862033,1.19865 -5.663149,-0.0527 -1.769362,-1.22925 -2.40809,-3.01931 -1.979605,-5.09667 0.408141,-1.97866 1.691921,-3.23755 3.649252,-3.76596 2.157652,-0.58248 4.516502,0.48715 5.581932,2.50649 1.15763,2.19408 0.60427,4.53182 -1.58843,6.40881 z"
       id="path199"
       style="fill:#000000;stroke-width:0.264583"
       inkscape:export-filename="..\..\Black font logo.png"
       inkscape:export-xdpi="96"
       inkscape:export-ydpi="96" />
  </g>
</svg>
